Patient4_TMGait_0pt3_03_left_21_EMG.mot
version=1
nRows=29
nColumns=33
inDegrees=no
endheader
time	1LAddLong	2LGlutMax	3LGlutMed	4LIliopsoas	5LSemiMemb	6LBicFemLong	7LRecFem	8LVastMed	9LVastLat	10LGasMed	11LTibAnt	12lTibPost	13LPeroneusLong	14LSol	15LExtDigLong	16LFlexDigLong	17RAddLong	18RGlutMax	19RGlutMed	20RIliopsoas	21RSemiMemb	22RBicFemLong	23RRecFem	24RVastMed	25RVastLat	26RGasMed	27RTibAnt	28RTibPost	29RPeroneusLong	30RSol	31RExtDigLong	32RFlexDigLong
38.42	0.009918	0.063019	-0.039063	-0.001373	-0.011139	-0.045319	-0.02121	0.005493	-0.003357	-0.022125	-0.07309	0.022278	0.035553	0.055084	-0.063782	0.006866	0.001526	-0.1236	0.39978	0.054016	0.00061	-0.11047	-0.26138	0.051727	-0.69534	-0.019379	-0.003357	0.057526	1.5376	-0.030518	0.002747	-0.004883
38.421	-0.000458	0.009918	-0.026245	-0.007935	-0.010529	-0.028076	-0.026398	0.013275	0.00412	-0.040741	0.019684	0.029449	0.096436	0.14297	-0.12024	0.004425	0.008392	-0.1503	-0.008698	0.090485	-0.006561	-0.14069	-0.30136	0.4451	-0.50186	-0.009155	-0.007629	0.020905	1.6118	-0.19089	-0.000916	-0.013428
38.422	-0.000305	-0.00351	-0.013733	-0.013123	-0.014038	-0.040283	-0.018921	0.005341	0.010834	-0.029755	0.080872	0.030975	0.089722	-0.056305	-0.022125	0.014191	-0.008698	-0.13596	0.1471	0.054169	0.021362	-0.12924	-0.28931	0.23209	-0.13016	0.001221	-0.16357	0.00473	0.63583	-0.31876	-0.002747	-0.000916
38.423	0.007782	0.007477	0.013123	-0.005341	-0.011902	-0.045929	-0.026245	0.007935	0.004425	-0.010834	-0.040741	0.034943	0.025177	-0.18723	0.34027	0.007324	-0.016174	-0.080261	-0.43198	0.021973	0.014496	-0.13321	-0.2446	-0.51559	0.37262	0.006561	-0.12909	-0.003967	-1.2582	-0.096588	-0.002899	-0.001526
38.424	0.016022	0.009918	0.016785	0.008087	-0.010986	-0.06134	-0.036316	0.006256	0.015717	0.017395	-0.086975	0.035706	-0.016327	-0.19409	0.13962	-0.010834	-0.01236	-0.043793	-0.27206	0.001221	0.007019	-0.12222	-0.37598	-1.0744	0.49515	-0.01236	0.0737	-0.007019	-0.96329	0.084381	-0.001373	-0.014191
38.425	0.001831	-0.005646	-0.018158	0.013275	-0.02121	-0.070343	-0.0383	0.007324	0.015106	0.00412	-0.1004	0.033875	0.00412	-0.18005	0.017242	0.004883	-0.00824	-0.068817	-0.37888	-0.079498	0.005493	-0.12314	-0.24948	-0.74036	0.13855	-0.019379	0.072784	-0.003052	-0.51697	-0.057983	0.000458	-0.006409
38.426	0.013275	-0.019073	-0.006256	0.021973	-0.014038	-0.089417	-0.0354	0.005951	0.026245	0.00061	-0.14069	0.038605	0.013733	-0.090485	0.084534	-0.010223	-0.024261	-0.031433	0.08728	-0.17227	0.015259	-0.10086	-0.25742	-0.29984	0.052185	-0.014038	-0.010223	0.000916	-0.80383	-0.041504	0.000153	-0.012665
38.427	0.02655	-0.011749	0.002747	0.022888	-0.004883	-0.10498	-0.051422	0.008392	0.022736	0.02182	0.001526	0.042725	-0.044403	-0.10193	0.2713	-0.003357	-0.027618	0.022125	0.12817	-0.02655	0.032654	-0.062103	-0.28748	0.31616	0.25299	-0.023956	-0.013275	-0.096893	-0.21164	0.077515	0.000763	-0.012207
38.428	0.009613	-0.033875	0.011292	0.009613	-0.013275	-0.10895	-0.009766	0.00351	0.024719	0.013733	0.067749	0.040436	-0.029755	-0.055237	-0.049133	0.004578	-0.015259	-0.006561	0.042114	0.084991	0.036011	-0.046692	-0.11978	0.57602	0.61981	-0.025635	0.019379	0.016632	-0.44403	0.014801	-0.001984	-0.009155
38.429	0.009155	-0.024567	0.005341	-0.005798	-0.009766	-0.10208	-0.037689	0.001831	0.009766	-0.03952	0.14343	0.04425	0.052032	-0.029755	-0.16861	0.011139	0.01358	-0.083313	-0.26382	0.19486	0.025635	-0.068359	0.092316	0.20798	0.85022	-0.008392	0.00946	-0.00885	-0.18127	0.031433	0.003204	-0.00946
38.43	-0.007782	0.007019	0.010986	-0.015564	0.005341	-0.071259	-0.019226	0.003204	-0.011292	-0.028687	0.11032	0.046539	0.066376	-0.052643	-0.11932	0.001373	0.023804	-0.065308	-0.27313	0.12558	0.00885	-0.10117	-0.088348	-0.053864	1.1609	0.005798	-0.007019	-0.005646	0.11124	0.059509	-0.002136	-0.00351
38.431	0.009766	0.022888	0.005035	-0.009308	0.010529	-0.031891	-0.016479	0.000763	-0.027466	-0.03418	0.013733	0.049286	0.06073	-0.042114	0.023956	0.007019	0.028687	0.012665	0.30518	-0.041046	0.023804	-0.037231	-0.3389	-0.087128	1.3904	0.000153	0.010986	-0.00351	0.1384	0.028992	-0.000763	-0.011139
38.432	0.006866	0.038147	-0.005798	-0.001068	-0.019531	0.021973	-0.016327	0.006561	-0.039368	-0.028381	-0.14236	0.054016	0.074615	-0.052338	-0.10254	0.004272	0.031281	-0.008545	0.004883	-0.11597	0.013885	-0.043793	-0.097656	-0.47516	1.245	-0.009766	0.005798	-0.007782	0.3038	0.009155	0	-0.005951
38.433	0.004272	0.009308	-0.003815	0.00885	-0.00946	0.027313	-0.001068	0.008545	-0.039978	-0.010681	-0.1471	0.060577	0.036163	-0.067596	-0.045776	0.002899	0.040894	-0.044708	-0.12375	-0.070038	-0.00061	-0.063171	0.13397	-1.1052	0.94986	-0.051117	0.006409	-0.002289	0.39352	0.037994	0.00061	-0.014496
38.434	-0.002136	0.016937	0.012512	0.011749	-0.016327	0.07309	-0.008392	0.010681	-0.048676	0.012054	-0.092316	0.061035	0.070953	-0.065918	-0.12039	0.005951	0.041351	-0.015717	1.6621	-0.075073	-0.015106	-0.081329	0.30868	-1.0718	0.37155	-0.05722	0.075989	0.002136	-0.38422	0.014801	-0.006866	-0.016174
38.435	0.001678	-0.003357	0.017395	0.022278	-0.027313	0.061188	-0.0177	0.011292	-0.046234	-0.016479	-0.007019	0.060425	0.10498	-0.00061	-0.032654	0.008087	0.049591	-0.053558	1.4142	-0.027466	-0.02182	-0.098114	0.41306	-0.96008	-0.45654	-0.040436	0.12619	0.002594	-1.362	-0.088654	-0.001831	-0.00946
38.436	0.005798	0.000763	0.021515	0.011749	-0.028687	0.047455	-0.001678	0.001221	-0.042877	-0.024261	0.049133	0.064545	0.09903	0.005341	0.048981	0.010529	0.051117	0.028229	-0.16464	0.074158	-0.02533	-0.10407	0.26001	-0.80765	-0.85007	-0.019531	0.09491	-0.005493	0.34958	-0.2446	-0.001373	-0.007477
38.437	-0.001678	0.021973	0.013885	0.009613	-0.018158	0.034332	0.006561	0.007324	-0.032043	-0.018005	0.054779	0.061493	0.071564	-0.062714	-0.004272	-0.001984	0.034943	0.017853	-1.8494	0.15274	-0.016785	-0.069427	-0.22751	-0.45075	-0.82459	0.015106	0.074463	-0.001984	1.2119	-0.39932	-0.00061	-0.010071
38.438	0.000305	-0.003052	0.013123	0.00473	-0.03479	0.018463	-0.006866	0.006866	-0.025024	0.014496	0.12421	0.058441	-0.037537	-0.078888	0.13382	0.005646	0.004272	0.007172	-1.6656	0.067139	-0.007324	-0.065613	-0.33341	-0.52383	-0.70602	0.038452	0.092163	-0.003357	-0.15991	-0.38879	-0.000153	-0.010376
38.439	0.014648	-0.019989	0.002441	0.000305	-0.025024	0.007629	-0.006714	0.001068	-0.014038	0.010834	0.10101	0.058899	-0.095215	-0.052948	0.13382	0.015564	0.034637	-0.055847	-0.97717	-0.02243	-0.013428	-0.083771	-0.21286	-0.36819	-0.54428	-0.035095	-0.12177	0.006409	-0.11185	-0.18265	0.001068	-0.007935
38.44	-0.007324	-0.007477	-0.016479	0.009308	-0.026703	0.001221	-0.012665	0.005341	-0.014191	0.00473	0.082397	0.066986	-0.068817	-0.024414	0.41107	0.015259	0.030823	-0.09201	-0.21225	-0.034027	-0.014343	-0.097961	-0.11185	-0.10086	-0.51041	-0.009003	-0.18097	0.018768	1.1295	-0.041351	0.001373	-0.012207
38.441	0.00061	-0.046539	-0.014191	0.020447	-0.024261	0.001526	0.023346	0.016022	-0.013428	-0.02182	-0.018005	0.073242	0.024872	-0.05661	0.47272	0.013733	0.042267	-0.19623	0.93048	-0.037689	-0.02655	-0.11246	0.055237	0.20096	-0.48462	0.030518	-0.20645	0.01297	-0.036774	-0.056305	-0.000458	-0.013428
38.442	0.002899	-0.023346	-0.018921	0.002594	-0.027161	-0.014343	-0.007172	0.005341	-0.007019	-0.001984	0.11963	0.082703	-0.039978	-0.060272	-0.16769	0.012207	0.015717	-0.31082	0.8345	-0.054474	-0.016174	-0.083618	0.18875	0.45441	-0.13992	0.043182	-0.16937	-0.24521	-0.38162	-0.16113	-0.003052	-0.007324
38.443	0.013123	-0.045776	-0.027771	0.000458	-0.017853	-0.028229	0.003662	0.005646	-0.015106	0.000458	0.066681	0.085449	-0.005951	0.027008	0.040283	0.026245	-0.009613	-0.2301	0.18585	-0.10468	0.021057	-0.050964	0.22507	0.51193	0.3688	0.030212	-0.071106	-0.097504	-0.40604	-0.16373	-0.004425	-0.007782
38.444	0.014648	-0.069733	-0.046234	-0.007172	-0.011902	-0.05188	0.038605	0.004883	-0.002899	-0.029907	-0.12421	0.089874	0.047913	0.11368	0.62836	0.030975	-0.041504	-0.11978	-0.36667	-0.12451	0.046844	-0.082703	0.11658	0.77988	0.83038	0.018921	-0.085144	0.087738	-0.016937	-0.23239	-0.001526	-0.007477
38.445	0.028687	-0.07431	-0.010529	-0.003815	-0.005341	-0.050507	0.044098	0.006256	-0.014801	-0.014954	-0.1712	0.10269	0.021667	0.042114	0.047302	0.021057	-0.0177	-0.12116	-0.33264	-0.29953	0.013885	-0.12543	0.30579	0.57571	1.138	0.000763	-0.011292	0.058746	-0.57083	-0.007477	-0.002594	0.002289
38.446	0.00946	-0.078278	-0.027466	-0.011597	-0.011597	-0.035248	0.038757	-0.001221	-0.013275	0.000305	-0.052948	0.10437	-0.015106	0.00885	-0.19791	0.023651	0.00885	-0.081787	0.11185	-0.20355	0.00473	-0.14542	0.39002	0.14542	1.189	-0.021515	-0.004425	-0.054932	-0.75485	0.29526	-0.00061	-0.014496
38.447	0.022888	-0.065155	0.050507	-0.012512	-0.017395	-0.042114	0.015411	0.002441	-0.006409	0.003052	0.10925	0.10376	-0.057831	0.037537	-0.66406	0.010834	0.012054	-0.054626	0.14832	0.14084	-0.002594	-0.14191	0.53345	-0.030212	1.1267	-0.023956	0.00061	-0.17731	-0.45868	0.17807	0.009766	-0.023346
38.448	0.002136	-0.056458	0.016022	-0.006104	-0.019989	-0.016174	0.026245	0.005798	-0.010681	-0.003815	0.038452	0.10086	-0.017395	0.059967	-0.48614	0.004883	0.027618	-0.025177	-0.12726	0.47089	-0.006561	-0.084991	0.37933	-0.34714	0.48035	-0.026855	-0.003967	-0.092163	-0.22797	-0.39673	-0.001068	-0.013275
